<?xml version="1.0" encoding="UTF-8"?><!DOCTYPE svg PUBLIC "-//W3C//DTD SVG 1.1//EN" "http://www.w3.org/Graphics/SVG/1.1/DTD/svg11.dtd"><svg xmlns="http://www.w3.org/2000/svg"><symbol id="bubble_chart" viewBox="0 0 24 24"><path d="M10.406 8.813c0-2.672 2.109-4.828 4.781-4.828s4.828 2.156 4.828 4.828-2.156 4.781-4.828 4.781-4.781-2.109-4.781-4.781zM12.797 18c0-1.125.891-2.016 2.016-2.016s1.969.891 1.969 2.016-.844 2.016-1.969 2.016-2.016-.891-2.016-2.016zm-8.813-3.609c0-1.781 1.453-3.188 3.234-3.188s3.188 1.406 3.188 3.188S9 17.579 7.218 17.579s-3.234-1.406-3.234-3.188z"/></symbol><symbol id="chat" viewBox="0 0 24 24"><path d="M18 8.016V6H6v2.016h12zm-3.984 6V12H6v2.016h8.016zM6 9v2.016h12V9H6zm14.016-6.984c1.078 0 1.969.891 1.969 1.969v12c0 1.078-.891 2.016-1.969 2.016H6l-3.984 3.984v-18c0-1.078.891-1.969 1.969-1.969h16.031z"/></symbol><symbol id="closed_caption" viewBox="0 0 24 24"><path d="M18 11.016V9.985a.96.96 0 0 0-.984-.984h-3c-.563 0-1.031.422-1.031.984v4.031c0 .563.469.984 1.031.984h3a.96.96 0 0 0 .984-.984v-1.031h-1.5v.516h-2.016v-3H16.5v.516H18zm-6.984 0V9.985c0-.563-.469-.984-1.031-.984h-3a.96.96 0 0 0-.984.984v4.031a.96.96 0 0 0 .984.984h3c.563 0 1.031-.422 1.031-.984v-1.031h-1.5v.516H7.5v-3h2.016v.516h1.5zm7.968-7.032C20.062 3.984 21 4.922 21 6v12c0 1.078-.938 2.016-2.016 2.016H5.015c-1.125 0-2.016-.938-2.016-2.016V6c0-1.078.891-2.016 2.016-2.016h13.969z"/></symbol><symbol id="code" viewBox="0 0 20 20"><path d="M5.719 14.75a.997.997 0 0 1-.664-.252L-.005 10l5.341-4.748a1 1 0 0 1 1.328 1.495L3.005 10l3.378 3.002a1 1 0 0 1-.664 1.748zm8.945-.002L20.005 10l-5.06-4.498a.999.999 0 1 0-1.328 1.495L16.995 10l-3.659 3.252a1 1 0 0 0 1.328 1.496zm-4.678 1.417l2-12a1 1 0 1 0-1.972-.329l-2 12a1 1 0 1 0 1.972.329z"/></symbol><symbol id="colours" viewBox="0 0 20 20"><path d="M3.179 5.998a1.005 1.005 0 0 0-1.408.132L.494 7.669a1.004 1.004 0 0 0 .131 1.407l7.888 6.542-3.807-8.354-1.527-1.266zm3.834-3.315l-1.82.829a1.005 1.005 0 0 0-.495 1.324l4.25 9.325.213-9.179-.822-1.804c-.23-.5-.826-.723-1.326-.495zm7.198.204a1.003 1.003 0 0 0-.976-1.023l-2-.046a1.003 1.003 0 0 0-1.022.976l-.239 10.243 4.19-8.167.047-1.983zm4.98.95l-1.779-.913a1.005 1.005 0 0 0-1.347.434L9.674 15.814a1.004 1.004 0 0 0 .434 1.347l1.779.913a1.003 1.003 0 0 0 1.346-.433l6.391-12.456a1.005 1.005 0 0 0-.433-1.348zm-6.392 12.456a1 1 0 1 1-1.78-.911 1 1 0 0 1 1.78.911z"/></symbol><symbol id="dashboard" viewBox="0 0 24 24"><path d="M12.984 3H21v6h-8.016V3zm0 18v-9.984H21V21h-8.016zM3 21v-6h8.016v6H3zm0-8.016V3h8.016v9.984H3z"/></symbol><symbol id="dehaze" viewBox="0 0 24 24"><path d="M2.016 5.484h19.969V7.5H2.016V5.484zm0 5.016h19.969v2.016H2.016V10.5zm0 5.016h19.969v1.969H2.016v-1.969z"/></symbol><symbol id="facebook" viewBox="0 0 19 32"><path d="M17.125.214v4.714h-2.804q-1.536 0-2.071.643T11.714 7.5v3.375h5.232l-.696 5.286h-4.536v13.554H6.25V16.161H1.696v-5.286H6.25V6.982q0-3.321 1.857-5.152T13.053 0q2.625 0 4.071.214z"/></symbol><symbol id="flickr" viewBox="0 0 27 32"><path d="M22.286 2.286q2.125 0 3.634 1.509t1.509 3.634v17.143q0 2.125-1.509 3.634t-3.634 1.509H5.143q-2.125 0-3.634-1.509T0 24.572V7.429q0-2.125 1.509-3.634t3.634-1.509h17.143zM12.464 16q0-1.571-1.107-2.679t-2.679-1.107-2.679 1.107T4.892 16t1.107 2.679 2.679 1.107 2.679-1.107T12.464 16zm10.072 0q0-1.571-1.107-2.679t-2.679-1.107-2.679 1.107T14.964 16t1.107 2.679 2.679 1.107 2.679-1.107T22.536 16z"/></symbol><symbol id="folder_open" viewBox="0 0 24 24"><path d="M20.016 18V8.016H3.985V18h16.031zm0-12c1.078 0 1.969.938 1.969 2.016V18c0 1.078-.891 2.016-1.969 2.016H3.985c-1.078 0-1.969-.938-1.969-2.016V6c0-1.078.891-2.016 1.969-2.016h6L12.001 6h8.016z"/></symbol><symbol id="foursquare" viewBox="0 0 23 32"><path d="M17.857 7.75l.661-3.464q.089-.411-.161-.714t-.625-.304H5.018q-.411 0-.688.304t-.277.661v19.661q0 .125.107.018l5.196-6.286q.411-.464.679-.598t.857-.134h4.268q.393 0 .661-.259t.321-.527q.429-2.321.661-3.411.071-.375-.205-.714t-.652-.339h-5.25q-.518 0-.857-.339t-.339-.857v-.75q0-.518.339-.848t.857-.33h6.179q.321 0 .625-.241t.357-.527zm4.054-3.964q-.268 1.304-.955 4.759t-1.241 6.25-.625 3.098q-.107.393-.161.58t-.25.58-.438.589-.688.375-1.036.179h-4.839q-.232 0-.393.179-.143.161-7.607 8.821-.393.446-1.045.509t-.866-.098q-.982-.393-.982-1.75V2.678q0-.982.679-1.83T3.607 0h15.857q1.696 0 2.268.946t.179 2.839zm0 0L19.09 17.893q.071-.304.625-3.098t1.241-6.25.955-4.759z"/></symbol><symbol id="google-plus" viewBox="0 0 41 32"><path d="M25.661 16.304q0 3.714-1.554 6.616t-4.429 4.536-6.589 1.634q-2.661 0-5.089-1.036t-4.179-2.786-2.786-4.179T-.001 16t1.036-5.089 2.786-4.179T8 3.946t5.089-1.036q5.107 0 8.768 3.429L18.303 9.75q-2.089-2.018-5.214-2.018-2.196 0-4.063 1.107t-2.955 3.009T4.982 16t1.089 4.152 2.955 3.009 4.063 1.107q1.482 0 2.723-.411t2.045-1.027 1.402-1.402.875-1.482.384-1.321h-7.429v-4.5h12.357q.214 1.125.214 2.179zm15.482-2.179v3.75h-3.732v3.732h-3.75v-3.732h-3.732v-3.75h3.732v-3.732h3.75v3.732h3.732z"/></symbol><symbol id="heart" viewBox="0 0 32 32"><path d="M16 29.714q-.464 0-.786-.321L4.071 18.643q-.179-.143-.491-.464t-.991-1.17-1.214-1.741-.955-2.161T0 10.643Q0 6.714 2.268 4.5t6.268-2.214q1.107 0 2.259.384t2.143 1.036 1.705 1.223T16 6.143q.643-.643 1.357-1.214t1.705-1.223 2.143-1.036 2.259-.384q4 0 6.268 2.214T32 10.643q0 3.946-4.089 8.036L16.786 29.393q-.321.321-.786.321z"/></symbol><symbol id="home" viewBox="0 0 20 20"><path d="M18.672 11H17v6c0 .445-.194 1-1 1h-4v-6H8v6H4c-.806 0-1-.555-1-1v-6H1.328c-.598 0-.47-.324-.06-.748L9.292 2.22c.195-.202.451-.302.708-.312.257.01.513.109.708.312l8.023 8.031c.411.425.539.749-.059.749z"/></symbol><symbol id="i_gallery" viewBox="0 0 512 512"><path d="M296 288l60-60c7.73-7.73 17.86-11.6 28-11.6 10.055 0 20.101 3.806 27.806 11.407 15.612 15.402 15.207 41.18-.3 56.687L277.213 418.787c-11.716 11.716-30.711 11.716-42.426 0L100 284c-7.73-7.73-11.6-17.86-11.6-28 0-10.055 3.806-20.101 11.407-27.806 15.402-15.612 41.18-15.207 56.687.3L216 288V56c0-22.091 17.909-40 40-40s40 17.909 40 40z" fill="#f79caf"/><path d="M411.51 284.49l-134.3 134.3c-11.71 11.71-30.71 11.71-42.42 0l-12.74-12.74c10.69 4.06 23.23 1.77 31.84-6.84l134.29-134.29c12.51-12.51 15.19-31.7 7.57-46.74 5.86 1.81 11.39 5.03 16.06 9.63 15.61 15.4 15.2 41.18-.3 56.68zM251.88 27.72a40.095 40.095 0 0 0-12.08-8.3A39.78 39.78 0 0 1 256 16c11.04 0 21.04 4.48 28.28 11.72S296 44.96 296 56v232l-15.329 15.329c-6.3 6.3-17.071 1.838-17.071-7.071V56c0-11.04-4.48-21.04-11.72-28.28z" fill="#e3889b"/><path d="M496 512h-24c-8.836 0-16-7.164-16-16s7.164-16 16-16h24c8.836 0 16 7.164 16 16s-7.164 16-16 16zM40 512H16c-8.836 0-16-7.164-16-16s7.164-16 16-16h24c8.836 0 16 7.164 16 16s-7.164 16-16 16zM416 512H96c-8.836 0-16-7.164-16-16s7.164-16 16-16h320c8.836 0 16 7.164 16 16s-7.164 16-16 16zM256 443.552c-11.78 0-23.56-4.484-32.527-13.452L88.687 295.313C78.184 284.811 72.4 270.85 72.4 256c0-14.708 5.688-28.573 16.017-39.042 10.31-10.451 24.214-16.233 39.151-16.284h.189c14.966 0 29.552 6.009 40.05 16.507L200 249.373V56c0-30.878 25.122-56 56-56s56 25.122 56 56v193.373l32.687-32.687C355.188 206.184 369.15 200.4 384 200.4c14.708 0 28.573 5.688 39.042 16.017 10.45 10.31 16.233 24.214 16.284 39.151.051 15.032-5.966 29.698-16.507 40.24L288.527 430.1c-8.967 8.968-20.747 13.452-32.527 13.452zM127.761 232.673h-.084c-6.349.021-12.202 2.421-16.479 6.758A23.454 23.454 0 0 0 104.401 256c0 6.302 2.456 12.228 6.914 16.686L246.1 407.473c5.459 5.459 14.341 5.459 19.8 0l134.292-134.292c4.556-4.557 7.157-10.937 7.134-17.504-.021-6.349-2.421-12.202-6.758-16.479a23.454 23.454 0 0 0-16.569-6.797c-6.302 0-12.228 2.456-16.687 6.914l-60 60A15.999 15.999 0 0 1 280 288V56c0-13.234-10.767-24-24-24-13.234 0-24 10.766-24 24v232a16 16 0 0 1-27.314 11.313l-59.506-59.505c-4.536-4.537-10.882-7.135-17.419-7.135z"/></symbol><symbol id="i_link" viewBox="0 0 512 512"><g fill="#ffea80"><path d="M59.543 169.815c-.77-8.292-8.116-14.391-16.408-13.622l-29.439 2.731c-8.293.769-14.391 8.115-13.622 16.407.77 8.294 8.117 14.391 16.408 13.622l29.439-2.731c8.293-.769 14.391-8.115 13.622-16.407zM188.964 16.473c.768-8.292-5.33-15.639-13.622-16.407-8.293-.769-15.639 5.33-16.408 13.622l-2.731 29.438c-.769 8.296 5.335 15.638 13.622 16.407 8.293.769 15.639-5.33 16.408-13.622zM94.409 91.694c5.889-5.889 5.889-15.437 0-21.325L75.525 51.485c-5.889-5.889-15.437-5.889-21.325 0s-5.889 15.437 0 21.325l18.885 18.885c5.888 5.888 15.435 5.888 21.324-.001z"/></g><path d="M452.455 342.185c.769 8.292 8.116 14.391 16.408 13.621l29.438-2.732c8.293-.769 14.391-8.116 13.621-16.408-.768-8.291-8.115-14.392-16.408-13.621l-29.438 2.732c-8.292.77-14.391 8.116-13.621 16.408zM355.795 468.875c.769-8.294-5.331-15.641-13.621-16.408-8.293-.769-15.639 5.329-16.408 13.621l-2.731 29.437c-.77 8.303 5.341 15.641 13.621 16.408 8.293.769 15.639-5.329 16.408-13.621zM457.799 439.19l-18.885-18.885c-5.889-5.889-15.437-5.889-21.325 0-5.889 5.889-5.889 15.437 0 21.325l18.885 18.885c5.889 5.889 15.437 5.889 21.325 0 5.889-5.888 5.889-15.436 0-21.325z" fill="#f3d332"/><g><path d="M350.425 161.562l.008.008-20.5 43.034-34.527 11.993-.008-.008c-22.736-22.736-59.564-22.789-82.375-.173l41.213-62.805 45.639-24.047c18.462 6.565 35.783 17.231 50.55 31.998zM157.823 161.562L39.898 279.487c-53.194 53.194-53.194 139.437-.015 192.616l.008.008 35.092-12.559 16.547-39.081-.008-.008c-22.789-22.789-22.796-59.751 0-82.548l37.383-37.383 3.673-3.673 31.599-72.22z" fill="#00ddc0"/><path d="M348.18 356.439l40.563-40.557 33.166-64.299-39.471-39.471c-6.572-18.455-17.231-35.768-32.005-50.543l-55.027 55.027c22.736 22.751 22.781 59.556.173 82.375l-8.067 8.067-69.065 33.087-6.332 42.31-38.037 38.037c-22.796 22.796-59.744 22.789-82.548 0l-51.64 51.639c53.202 53.187 139.43 53.187 192.624-.008 82.375-82.374 107.658-107.645 115.666-115.664z" fill="#00ba9f"/><path d="M240.51 314.193c-43.043-10.57-59.978-65.005-27.487-97.777L334.524 94.915c22.796-22.796 59.759-22.789 82.548 0l.008.008 37.719-15.185 17.308-39.842-.008-.008c-53.179-53.179-139.415-53.187-192.601 0-126.21 126.21-118.421 118.391-119.781 119.826-36.902 38.329-46.952 92.951-30.142 140.151 6.702 18.877 17.523 36.09 31.998 50.565 14.774 14.774 32.088 25.433 50.543 32.005l37.841-37.841 45.623-45.623c-14.966 14.836-35.971 19.91-55.07 15.222z" fill="#ffea80"/><path d="M352.288 352.285c25.358-26.334 38.044-60.367 38.037-94.415 0-15.488-2.621-30.999-7.887-45.758l34.642-34.642c22.789-22.789 22.796-59.736 0-82.548l55.027-55.027c53.187 53.202 53.194 139.422.008 192.609C345.881 358.737 353.73 350.918 352.288 352.285z" fill="#f3d332"/></g></symbol><symbol id="i_quwen" viewBox="0 0 512 512"><g clip-rule="evenodd" fill-rule="evenodd"><path d="M223.685 324.372h64.658c21.091 6.321 39.375 18.68 39.375 32.91v84.444H184.311v-84.444c0-14.23 18.255-26.589 39.374-32.91z" fill="#ebd2ff"/><path d="M303.453 357.282v84.444h24.265v-84.444c0-14.23-18.284-26.589-39.375-32.91h-24.264c21.09 6.321 39.374 18.68 39.374 32.91z" fill="#d7bef0"/><path d="M94.281 437.843h38.212l31.238-4.365 30.983 4.365h122.601l30.472-5.982 31.72 5.982h38.24v58.507H94.281z" fill="#d09080"/><path d="M7.512 485.691V361.25c0-15.307 12.529-27.836 27.837-27.836h45.979c.794 0 1.588.028 2.353.085 7.143-.68 14.457 2.239 19.105 8.362l37.419 49.55c1.87 2.494 3.911 3.798 7.653 3.798h46.856c11.764 0 21.317 9.553 21.317 21.317 0 11.792-9.554 21.316-21.317 21.316h-62.221a21.257 21.257 0 0 1-16.98-8.476l-6.35-8.391v75.373H18.142c-5.415-.962-9.695-5.243-10.63-10.657z" fill="#ff6978"/><path d="M504.517 485.691V361.25c0-15.307-12.529-27.836-27.864-27.836h-45.951c-.794 0-1.587.028-2.381.085-7.144-.68-14.457 2.239-19.105 8.362l-37.391 49.55c-1.728 2.268-3.741 3.798-7.653 3.798h-46.856c-11.792 0-21.345 9.553-21.345 21.317 0 11.792 9.553 21.316 21.345 21.316h62.192a21.313 21.313 0 0 0 17.009-8.476l6.321-8.391v75.373h91.021c5.413-.962 9.694-5.243 10.658-10.657z" fill="#ccf49f"/><path d="M228.815 204.494h122.118l30.897 30.898c2.467 2.438 5.273 1.021 5.273-2.211v-28.688c15.732 0 28.602-12.897 28.602-28.63v-72.227c0-15.732-12.869-28.602-28.602-28.602H228.815c-15.732 0-28.631 12.869-28.631 28.602v72.227c.001 15.734 12.899 28.631 28.631 28.631z" fill="#ecf4ff"/><path d="M85.777 175.638h128.469c20.891 0 37.983-17.093 37.983-37.984V53.635c0-20.863-17.093-37.956-37.983-37.956H49.607c-20.893 0-37.985 17.093-37.985 37.956v84.019c0 20.892 17.093 37.984 37.985 37.984v28.715c0 3.062 3.005 4.45 5.273 2.183z" fill="#ecf4ff"/><path d="M296.479 302.772c0 22.252-18.227 40.478-40.479 40.478s-40.479-18.227-40.479-40.478v-43.37c0-12.472 10.204-22.648 22.677-22.648h52.242c4.168 0 6.039 2.381 6.039 6.01z" fill="#ffcbbe"/><path d="M215.521 259.401v13.068h80.958v-29.707c0-3.629-1.871-6.01-6.039-6.01h-52.242c-12.472.001-22.677 10.178-22.677 22.649z" fill="#ffe5a0"/><path d="M17.858 302.772c0 22.252 18.227 40.478 40.479 40.478s40.479-18.227 40.479-40.478v-43.37c0-12.472-10.205-22.648-22.678-22.648h-35.63c-12.444 0-22.649 10.177-22.649 22.648v43.37z" fill="#ffcbbe"/><path d="M494.142 302.772c0 22.252-18.198 40.478-40.451 40.478-22.28 0-40.478-18.227-40.478-40.478v-43.37c0-12.472 10.176-22.648 22.648-22.648h35.632c12.473 0 22.649 10.177 22.649 22.648z" fill="#c68b87"/><path d="M494.142 302.772c0 22.252-18.198 40.478-40.451 40.478-4.224 0-8.306-.68-12.161-1.87 15.194-4.819 26.561-18.369 28.149-34.668 6.35 1.077 14.343.51 24.435-2.522l.028-44.788z" fill="#bd7d79"/><path d="M98.817 259.401v15.761c-11.424 4.224-20.778.766-26.249-2.353-4.252-2.409-4.989-2.438-5.499 1.474-1.475 11.367-6.605 42.747-49.154 29.906l-.057-44.788c0-12.472 10.205-22.648 22.649-22.648H76.14c12.472 0 22.677 10.177 22.677 22.648z" fill="#c68b87"/><path d="M413.212 259.401v15.761c11.395 4.224 20.749.766 26.22-2.353 4.28-2.409 4.989-2.438 5.499 1.474 1.475 11.367 6.605 42.747 49.183 29.906l.028-44.788c.028-12.472-10.177-22.648-22.649-22.648H435.86c-12.472 0-22.648 10.177-22.648 22.648z" fill="#477b9e"/><path d="M469.876 259.401v43.37c0 1.332-.057 2.637-.197 3.94 6.35 1.077 14.343.51 24.435-2.522l.028-44.788c0-11.934-9.326-21.77-21.061-22.592-.539-.057-1.049-.057-1.588-.057h-24.265c12.471.001 22.648 10.178 22.648 22.649z" fill="#365e7d"/><path d="M74.553 302.772c0 18.028-11.963 33.421-28.347 38.608 3.826 1.19 7.908 1.87 12.132 1.87 22.252 0 40.479-18.227 40.479-40.478v-27.609c-10.148 3.77-18.652 1.445-24.265-1.304v28.913z" fill="#f7beaf"/><path d="M51.875 236.753c12.473 0 22.678 10.177 22.678 22.648v14.457c5.612 2.749 14.116 5.074 24.265 1.304v-15.761c0-12.472-10.205-22.648-22.678-22.648z" fill="#bd7d79"/><path d="M272.214 302.772c0 18.028-11.962 33.421-28.346 38.608 3.826 1.19 7.908 1.87 12.132 1.87 22.252 0 40.479-18.227 40.479-40.478V272.47h-24.266v30.302z" fill="#f7beaf"/><path d="M272.214 242.763v29.707h24.266v-29.707c0-3.629-1.871-6.01-6.039-6.01h-24.264c4.166 0 6.037 2.381 6.037 6.01z" fill="#f2ce7e"/><path d="M87.847 392.743c-.964-1.304-2.947-.651-2.947.992V496.35h24.264v-75.373z" fill="#cf4351"/><path d="M480.252 361.25v124.441c-.964 5.414-5.244 9.694-10.659 10.658h24.266c5.414-.964 9.694-5.244 10.658-10.658V361.25c0-14.229-10.856-26.078-24.69-27.666a40.17 40.17 0 0 1-9.78 6.18c6.208 5.102 10.205 12.869 10.205 21.486z" fill="#b3e59f"/><path d="M200.497 179.918c1.983 13.833 13.947 24.576 28.318 24.576h122.118l30.897 30.898c2.467 2.438 5.273 1.021 5.273-2.211v-28.688c15.732 0 28.602-12.897 28.602-28.63v-72.227c0-14.371-10.715-26.334-24.548-28.318.198 1.333.283 2.665.283 4.054V151.6c0 15.732-12.87 28.602-28.603 28.602H204.551a27.216 27.216 0 0 1-4.054-.284z" fill="#ddeafb"/><path d="M227.966 113.389c0 17.349-11.793 32.089-27.781 36.567a37.758 37.758 0 0 1-10.204 1.417H25.342c-4.139 0-8.107-.68-11.82-1.899 4.989 15.138 19.304 26.164 36.086 26.164v28.715c0 3.062 3.005 4.45 5.273 2.183l30.897-30.898h128.468c20.891 0 37.983-17.093 37.983-37.984V53.635c0-16.753-11.026-31.067-26.163-36.085a38.084 38.084 0 0 1 1.899 11.82v84.019z" fill="#ddeafb"/><path d="M378.571 437.843h24.266v58.507h-24.266z" fill="#be694f"/></g><path d="M27.383 314.082a32.878 32.878 0 0 0 7.682 11.962c5.981 5.981 14.203 9.694 23.273 9.694 9.043 0 17.292-3.713 23.272-9.694 5.981-5.98 9.695-14.229 9.695-23.272v-18.34c-6.945.596-13.04-.907-17.802-2.892-.426 2.069-.907 4.082-1.531 6.066-2.353 7.653-6.293 14.627-12.529 19.644-6.321 5.103-14.712 8.051-25.824 7.484-1.984-.086-4.054-.312-6.236-.652zm194.29-49.125h65.934v-20.721h-50.769c-4.167 0-7.966 1.73-10.715 4.479-2.75 2.75-4.45 6.52-4.45 10.687zm65.933 14.996h-65.934v22.818c0 9.043 3.713 17.292 9.694 23.272 5.98 5.981 14.229 9.694 23.272 9.694 9.07 0 17.319-3.713 23.273-9.694 5.98-5.98 9.694-14.229 9.694-23.272v-22.818zm205.515 50.06c4.025 2.126 7.568 5.018 10.488 8.447 5.244 6.18 8.391 14.145 8.391 22.79v50.57a7.476 7.476 0 0 1-7.483 7.483c-4.139 0-7.513-3.345-7.513-7.483v-50.57c0-4.988-1.814-9.581-4.818-13.124a20.595 20.595 0 0 0-10.375-6.576 47.49 47.49 0 0 1-28.12 9.185c-10.857 0-20.892-3.629-28.971-9.78-1.53.17-3.004.596-4.422 1.247-1.928.907-3.685 2.297-5.103 4.167l-40.281 53.349c-1.417 1.871-3.628 3.005-5.98 3.005h-51.619c-3.827 0-7.285 1.53-9.779 4.024-2.495 2.523-4.054 5.981-4.054 9.78 0 3.826 1.559 7.284 4.054 9.779a13.796 13.796 0 0 0 9.779 4.054h61.653c2.467 0 4.365-.256 6.719-1.446 4.366-2.183 8.447-8.815 11.424-12.784l26.674-35.291a7.472 7.472 0 0 1 10.488-1.474c3.289 2.494 3.94 7.199 1.446 10.487l-25.37 33.619v65.367h86.655v-43.059c0-4.139 3.374-7.483 7.513-7.483a7.476 7.476 0 0 1 7.483 7.483v50.57a7.476 7.476 0 0 1-7.483 7.483H7.512c-4.139 0-7.512-3.345-7.512-7.483v-50.57c0-4.139 3.373-7.483 7.512-7.483s7.483 3.345 7.483 7.483v43.059h86.685v-65.367l-25.398-33.619c-2.494-3.288-1.843-7.993 1.475-10.487 3.288-2.495 7.993-1.843 10.488 1.474l26.078 34.526c2.382 3.146 4.763 6.321 7.143 9.495 1.36 1.786 3.033 3.146 4.876 4.054 2.07 1.049 3.997 1.446 6.266 1.446h62.106c3.799 0 7.257-1.56 9.779-4.054a13.77 13.77 0 0 0 4.025-9.779 13.87 13.87 0 0 0-4.025-9.78 13.869 13.869 0 0 0-9.779-4.024h-51.647a7.486 7.486 0 0 1-5.98-3.005l-40.281-53.349a13.867 13.867 0 0 0-9.524-5.414c-8.051 6.123-18.085 9.78-28.942 9.78a47.745 47.745 0 0 1-28.148-9.156c-4.025 1.049-7.597 3.345-10.262 6.406-3.062 3.571-4.933 8.192-4.933 13.266v50.57c0 4.139-3.345 7.483-7.483 7.483S0 415.959 0 411.82v-50.57c0-8.759 3.26-16.837 8.617-23.045 2.892-3.316 6.378-6.123 10.29-8.192a47.563 47.563 0 0 1-8.532-27.241v-43.37c0-8.306 3.373-15.846 8.844-21.316 5.472-5.442 12.983-8.844 21.289-8.844H76.14c8.306 0 15.846 3.401 21.316 8.844 5.471 5.471 8.845 13.011 8.845 21.316v43.37a47.646 47.646 0 0 1-7.768 26.107c4.054 2.041 7.483 4.848 10.233 8.476l38.014 50.343h30.018v-30.415c0-8.617 4.564-16.413 11.963-23.018 5.726-5.102 13.266-9.553 21.6-13.067a47.616 47.616 0 0 1-3.686-18.426v-43.37c0-8.306 3.402-15.846 8.846-21.316 5.471-5.442 13.011-8.844 21.316-8.844h58.28c4.139 0 7.513 3.373 7.513 7.512v66.019c0 6.151-1.19 12.048-3.317 17.49 8.958 3.515 17.065 8.05 23.189 13.322 7.851 6.747 12.699 14.797 12.699 23.698v30.415h30.018l38.014-50.343a28.712 28.712 0 0 1 10.262-8.447 47.604 47.604 0 0 1-7.796-26.136v-43.37c0-8.306 3.402-15.846 8.845-21.316 5.471-5.442 13.011-8.844 21.316-8.844h35.632c8.307 0 15.846 3.401 21.317 8.844 5.442 5.471 8.844 13.011 8.844 21.316v43.37c0 9.75-2.976 19.218-8.532 27.241zm-8.504-15.931c-2.154.34-4.252.566-6.236.652-11.085.566-19.475-2.382-25.796-7.484-6.265-5.017-10.205-11.99-12.558-19.644a61.264 61.264 0 0 1-1.503-6.066c-4.79 1.984-10.856 3.487-17.83 2.892v18.34c0 9.043 3.714 17.292 9.695 23.272 5.98 5.981 14.23 9.694 23.301 9.694 9.042 0 17.291-3.713 23.273-9.694a33.167 33.167 0 0 0 7.654-11.962zm-63.923-44.674c10.007 1.417 17.32-4.394 18.624-5.527 1.474-1.248 2.863-2.013 4.876-2.098a7.459 7.459 0 0 1 7.823 7.114c.255 4.876.935 9.808 2.324 14.315 1.531 5.018 3.94 9.439 7.597 12.387 3.601 2.892 8.676 4.536 15.733 4.195 2.722-.142 5.698-.566 8.986-1.304V259.4c0-4.167-1.729-7.937-4.479-10.687-2.75-2.749-6.52-4.479-10.688-4.479h-35.63c-4.167 0-7.938 1.73-10.687 4.479-2.75 2.75-4.479 6.52-4.479 10.687zm-329.388 0v-10.007c0-4.167-1.701-7.937-4.451-10.687-2.749-2.749-6.548-4.479-10.715-4.479H40.508c-4.139 0-7.938 1.73-10.688 4.479-2.749 2.75-4.45 6.52-4.45 10.687v39.09c3.26.737 6.236 1.162 8.958 1.304 7.058.341 12.133-1.304 15.733-4.195 3.656-2.947 6.065-7.369 7.625-12.387 1.389-4.508 2.069-9.439 2.296-14.315a7.476 7.476 0 0 1 7.823-7.114c1.928.085 3.402.793 4.819 2.04 1.05.935 8.477 7.029 18.682 5.584zm127.078 64.687c-7.824 3.033-14.74 6.888-19.673 11.31-4.28 3.799-6.917 7.881-6.917 11.878v30.415h2.92c7.938 0 15.165 3.232 20.382 8.447 5.216 5.216 8.447 12.416 8.447 20.382 0 5.017-1.304 9.723-3.543 13.833h72a28.811 28.811 0 0 1-3.515-13.833c0-7.966 3.231-15.166 8.447-20.382 5.217-5.215 12.416-8.447 20.382-8.447h2.892v-30.415c0-4.139-2.835-8.391-7.427-12.331-5.387-4.62-12.87-8.617-21.204-11.65a48.962 48.962 0 0 1-3.033 3.345c-8.703 8.702-20.693 14.089-33.902 14.089-13.182 0-25.2-5.387-33.874-14.089a50.838 50.838 0 0 1-2.382-2.552zM62.505 63.697c-4.139 0-7.483-3.373-7.483-7.512s3.345-7.483 7.483-7.483h138.842a7.476 7.476 0 0 1 7.483 7.483c0 4.139-3.345 7.512-7.483 7.512zm0 78.917c-4.139 0-7.483-3.373-7.483-7.512s3.345-7.512 7.483-7.512h69.422c4.139 0 7.512 3.373 7.512 7.512s-3.373 7.512-7.512 7.512zm0-39.458c-4.139 0-7.483-3.373-7.483-7.512s3.345-7.484 7.483-7.484h138.842a7.476 7.476 0 0 1 7.483 7.484c0 4.139-3.345 7.512-7.483 7.512zm146.524 79.965a20.733 20.733 0 0 0 4.848 7.653 20.96 20.96 0 0 0 14.938 6.208h44.079c4.139 0 7.483 3.346 7.483 7.512a7.476 7.476 0 0 1-7.483 7.484h-44.079c-10.006 0-19.021-4.082-25.541-10.659a36.451 36.451 0 0 1-9.808-18.198H88.896L54.937 217.08a7.491 7.491 0 0 1-5.329 2.211c-4.139 0-7.513-3.345-7.513-7.483v-29.31c-9.524-1.588-18.057-6.151-24.604-12.728-8.249-8.221-13.351-19.588-13.351-32.117V53.635c0-12.501 5.103-23.868 13.351-32.116 8.221-8.221 19.587-13.352 32.117-13.352h164.639c12.528 0 23.896 5.131 32.116 13.352 8.249 8.248 13.352 19.615 13.352 32.116v13.89h127.391c9.949 0 18.964 4.054 25.512 10.602s10.602 15.562 10.602 25.512v72.227c0 9.95-4.054 18.964-10.602 25.512a36.157 36.157 0 0 1-18.028 9.809v29.48a7.47 7.47 0 0 1-2.183 5.301c-2.92 2.919-7.682 2.919-10.602 0l-33.988-33.987h-40.961c-4.139 0-7.512-3.346-7.512-7.484a7.507 7.507 0 0 1 7.512-7.512h44.079c2.098 0 3.969.851 5.329 2.239l23.329 23.329v-18.057a7.508 7.508 0 0 1 7.513-7.512c5.782 0 11.083-2.381 14.91-6.208 3.826-3.826 6.208-9.099 6.208-14.91v-72.227c0-5.811-2.382-11.083-6.208-14.91-3.827-3.827-9.128-6.208-14.91-6.208H259.714v55.134c0 12.529-5.103 23.896-13.352 32.117-8.221 8.248-19.588 13.351-32.116 13.351h-5.217zM85.777 168.126h128.469c8.39 0 15.987-3.43 21.515-8.957 5.527-5.528 8.957-13.153 8.957-21.516V53.635c0-8.362-3.43-15.987-8.957-21.515s-13.125-8.958-21.515-8.958H49.607c-8.392 0-15.988 3.43-21.516 8.958-5.527 5.527-8.958 13.152-8.958 21.515v84.019c0 8.362 3.431 15.987 8.958 21.516 5.527 5.527 13.124 8.957 21.516 8.957 4.139 0 7.483 3.373 7.483 7.512v18.057l23.386-23.357a7.447 7.447 0 0 1 5.301-2.213zm309.576 277.228H116.675v43.483h278.679v-43.483z"/></symbol><symbol id="i_tucao" viewBox="0 0 512.01 512.01"><path d="M351.001 191.998c0 99.592-83.368 179.336-183 174.82-23.34-1.03-45.76-6.59-66.81-16.57l-83.28 16.46c-4.589.947-9.79-.385-13.53-4.12a14.986 14.986 0 0 1-4.09-13.53l16.45-82.27c-11.11-23.43-16.74-48.57-16.74-74.79 0-96.587 79.043-175 176-175 96.51 0 175 78.497 175 175z" fill="#ffe278"/><path d="M351.001 191.998c0 99.592-83.368 179.336-183 174.82V17.178c99.532-4.512 183 75.122 183 174.82z" fill="#ffb454"/><path d="M511.711 477.058c2.121 10.628-7.376 19.764-17.62 17.65l-83.28-16.46c-23.44 11.12-48.58 16.75-74.81 16.75-96.5 0-175-78.5-175-175 0-96.511 78.497-175 175-175 97.05 0 176 78.5 176 175 0 26.22-5.63 51.36-16.74 74.79z" fill="#dd5958"/><path d="M511.711 477.058c2.121 10.628-7.376 19.764-17.62 17.65l-83.28-16.46c-23.44 11.12-48.58 16.75-74.81 16.75v-350c97.05 0 176 78.5 176 175 0 26.22-5.63 51.36-16.74 74.79z" fill="#d8225b"/></symbol><symbol id="i_zhannei" viewBox="0 0 512 512"><path d="M344.5 201h-11v110h11c30.376 0 55-24.624 55-55s-24.624-55-55-55z" fill="#ffc682"/><path d="M399.5 256c0 30.38-24.62 55-55 55h-11v-23h11c26.44 0 48.51-18.64 53.79-43.5.79 3.71 1.21 7.56 1.21 11.5z" fill="#ffac5c"/><path d="M116.75 427.03c0 1.72-.3 3.4-.86 4.97-2.03 5.7-7.44 10-14.15 10H62.5c-2.76 0-5-2.24-5-5V308h45v30.54c0 28.46 4.55 56.73 13.48 83.75.35 1.07.58 2.15.68 3.21.03.17.04.33.05.5.03.35.04.69.04 1.03z" fill="#f5f5f5"/><path d="M116.75 427.03c0 1.72-.3 3.4-.86 4.97-2.03 5.7-7.44 10-14.15 10H62.5c-2.76 0-5-2.24-5-5V310l45 .49v18.01H76c-1.1 0-2 .9-2 2v93c0 1.1.9 2 2 2h40.66c.03.17.04.33.05.5.03.35.04.69.04 1.03z" fill="#e6e6e6"/><g fill="#ffe7c9"><path d="M504.5 264.5h-70a7.5 7.5 0 0 1 0-15h70a7.5 7.5 0 0 1 0 15zM456.574 376.71a7.462 7.462 0 0 1-4.483-1.493l-44.995-33.623a7.5 7.5 0 0 1 8.978-12.016l44.995 33.623a7.5 7.5 0 0 1-4.495 13.509zM413.123 185.199a7.5 7.5 0 0 1-4.495-13.508l44.996-33.623a7.5 7.5 0 0 1 10.497 1.519 7.5 7.5 0 0 1-1.519 10.497l-44.996 33.623a7.47 7.47 0 0 1-4.483 1.492z"/></g><path d="M125.06 201v110H62.5c-15.19 0-28.94-6.16-38.89-16.11S7.5 271.19 7.5 256c0-30.38 24.62-55 55-55z" fill="#fd646f"/><path d="M294 95.07v321.86l-54.91-33.92-28.93-17.87L175 343.42l-15-9.26L122.5 311V201l37.5-23.16 15-9.27z" fill="#f0ecec"/><path d="M175 168.57v174.85l-15-9.26V177.84z" fill="#fd646f"/><path d="M294 95.07v321.86l-54.91-33.92-28.93-17.87L175 343.42l-15-9.26L122.5 311V201l27.5-16.98 10-6.18 15-9.27z" fill="#f5f5f5"/><path d="M175 168.57v153.69L160 313V177.84zM318.5 70c14.359 0 26 11.641 26 26v320c0 14.359-11.641 26-26 26s-26-11.641-26-26V96c0-14.359 11.641-26 26-26z" fill="#fd646f"/><path d="M122.5 283.224s-21.947.067-27.45.095l-36.57.181c-16.15 0-30.77 3.84-41.35-6.11a55.076 55.076 0 0 1-8.45-10.05c2.22 10.64 7.53 20.15 14.93 27.55C33.56 304.84 47.31 311 62.5 311h62.56zM175 312.26v31.16l-15-9.26V303z" fill="#fc4755"/><path d="M292.5 384.84V416l-53.41-32.99-28.93-17.87L175 343.42v-31.16l9.46 5.84z" fill="#e6e6e6"/><path d="M344.5 385.97V416c0 14.36-11.64 26-26 26-7.18 0-13.68-2.91-18.38-7.62-4.71-4.7-7.62-11.2-7.62-18.38v-31.05c0 9.16 11.65 16.59 26.03 16.59 13.83 0 25.14-6.88 25.97-15.57z" fill="#fc4755"/><path d="M150 296.823l-14.9-9.203c-3.1-1.91-6.5-3.26-10.04-3.98-.846-.173-1.7-.313-2.56-.416V311l37.5 23.16V303z" fill="#e6e6e6"/><g><path d="M407 256c0-3.608-.311-7.227-.923-10.755a7.5 7.5 0 0 0-14.779 2.565c.466 2.684.702 5.439.702 8.19 0 23.639-17.36 43.295-40 46.902v-93.803c9.513 1.507 18.342 5.858 25.402 12.642a7.476 7.476 0 0 0 5.195 2.092 7.5 7.5 0 0 0 5.197-12.908c-9.875-9.488-22.377-15.358-35.795-16.962V96c0-18.472-15.028-33.5-33.5-33.5-16.992 0-31.06 12.72-33.206 29.136L120.371 193.5H62.5C28.037 193.5 0 221.538 0 256c0 30.183 21.507 55.435 50 61.242V383.5c0 4.143 3.357 7.5 7.5 7.5s7.5-3.357 7.5-7.5v-65h30v20.037c0 29.31 4.665 58.28 13.864 86.108a7.42 7.42 0 0 1-1.043 6.748 7.42 7.42 0 0 1-6.078 3.106H65v-17c0-4.143-3.357-7.5-7.5-7.5s-7.5 3.357-7.5 7.5V442c0 4.143 3.357 7.5 7.5 7.5h44.243c7.309 0 13.955-3.397 18.236-9.321 4.28-5.924 5.42-13.302 3.126-20.241A258.922 258.922 0 0 1 110 338.537V318.5h10.371l85.848 53.023a7.5 7.5 0 0 0 7.883-12.761L175 334.611V177.389l110-67.941v293.105l-41.966-25.92a7.5 7.5 0 0 0-7.883 12.761l50.142 30.97C287.44 436.78 301.508 449.5 318.5 449.5c18.472 0 33.5-15.028 33.5-33.5v-97.966c30.937-3.719 55-30.111 55-62.034zm-292 47.5H62.5C36.309 303.5 15 282.191 15 256s21.309-47.5 47.5-47.5H115zm45 21.846l-30-18.529V205.183l30-18.529zM337 416c0 10.201-8.299 18.5-18.5 18.5S300 426.201 300 416V96c0-10.201 8.299-18.5 18.5-18.5S337 85.799 337 96zM504.5 249.5h-70a7.5 7.5 0 0 0-7.5 7.5c0 4.143 3.357 7.5 7.5 7.5h70c4.143 0 7.5-3.357 7.5-7.5a7.5 7.5 0 0 0-7.5-7.5zM461.069 363.202l-44.995-33.623c-3.317-2.48-8.018-1.799-10.497 1.519s-1.8 8.018 1.519 10.497l44.995 33.623a7.463 7.463 0 0 0 4.483 1.492 7.5 7.5 0 0 0 4.495-13.508zM413.123 185.199a7.46 7.46 0 0 0 4.483-1.493l44.995-33.623a7.5 7.5 0 0 0-8.978-12.016l-44.995 33.623a7.5 7.5 0 0 0 4.495 13.509z"/></g></symbol><symbol id="inbox" viewBox="0 0 24 24"><path d="M18.984 15V5.016H4.968V15h4.031c0 1.641 1.359 3 3 3s3-1.359 3-3h3.984zm0-12C20.062 3 21 3.891 21 5.016v13.969c0 1.078-.938 2.016-2.016 2.016H4.968c-1.125 0-1.969-.938-1.969-2.016V5.016C2.999 3.891 3.843 3 4.968 3h14.016z"/></symbol><symbol id="infinity" viewBox="0 0 20 20"><path d="M15.902 5.6c-2.079 0-4.358 1.158-5.902 2.916C8.455 6.758 6.175 5.6 4.096 5.6 2.116 5.6 0 6.756 0 10s2.116 4.398 4.096 4.4c2.079 0 4.358-1.158 5.903-2.916 1.544 1.758 3.823 2.916 5.902 2.916C17.882 14.4 20 13.244 20 10s-2.118-4.4-4.098-4.4zM4.096 12.641C2.584 12.641 1.8 11.752 1.8 10s.784-2.641 2.296-2.641c1.673 0 3.614 1.086 4.807 2.641-1.193 1.555-3.134 2.641-4.807 2.641zm11.806 0c-1.673 0-3.614-1.086-4.807-2.641 1.192-1.555 3.135-2.641 4.807-2.641 1.512 0 2.298.889 2.298 2.641s-.786 2.641-2.298 2.641z"/></symbol><symbol id="instagram" viewBox="0 0 27 32"><path d="M18.286 16q0-1.893-1.339-3.232t-3.232-1.339-3.232 1.339T9.144 16t1.339 3.232 3.232 1.339 3.232-1.339T18.286 16zm2.464 0q0 2.929-2.054 4.982t-4.982 2.054-4.982-2.054T6.678 16t2.054-4.982 4.982-2.054 4.982 2.054T20.75 16zm1.929-7.321q0 .679-.482 1.161t-1.161.482-1.161-.482-.482-1.161.482-1.161 1.161-.482 1.161.482.482 1.161zM13.714 4.75l-1.366-.009q-1.241-.009-1.884 0t-1.723.054-1.839.179-1.277.33q-.893.357-1.571 1.036T3.018 7.911q-.196.518-.33 1.277t-.179 1.839-.054 1.723 0 1.884T2.464 16t-.009 1.366 0 1.884.054 1.723.179 1.839.33 1.277q.357.893 1.036 1.571t1.571 1.036q.518.196 1.277.33t1.839.179 1.723.054 1.884 0 1.366-.009 1.366.009 1.884 0 1.723-.054 1.839-.179 1.277-.33q.893-.357 1.571-1.036t1.036-1.571q.196-.518.33-1.277t.179-1.839.054-1.723 0-1.884T24.964 16t.009-1.366 0-1.884-.054-1.723-.179-1.839-.33-1.277q-.357-.893-1.036-1.571t-1.571-1.036q-.518-.196-1.277-.33t-1.839-.179-1.723-.054-1.884 0-1.366.009zM27.429 16q0 4.089-.089 5.661-.179 3.714-2.214 5.75t-5.75 2.214q-1.571.089-5.661.089t-5.661-.089q-3.714-.179-5.75-2.214T.09 21.661Q.001 20.09.001 16t.089-5.661q.179-3.714 2.214-5.75t5.75-2.214q1.571-.089 5.661-.089t5.661.089q3.714.179 5.75 2.214t2.214 5.75q.089 1.571.089 5.661z"/></symbol><symbol id="list" viewBox="0 0 24 24"><path d="M6.984 6.984H21V9H6.984V6.984zm0 10.032V15H21v2.016H6.984zm0-4.032v-1.969H21v1.969H6.984zM3 9V6.984h2.016V9H3zm0 8.016V15h2.016v2.016H3zm0-4.032v-1.969h2.016v1.969H3z"/></symbol><symbol id="local_offer" viewBox="0 0 24 24"><path d="M5.484 6.984c.844 0 1.5-.656 1.5-1.5s-.656-1.5-1.5-1.5-1.5.656-1.5 1.5.656 1.5 1.5 1.5zm15.938 4.594c.375.375.563.844.563 1.406s-.188 1.031-.563 1.406l-7.031 7.031c-.375.375-.844.563-1.406.563s-1.031-.188-1.406-.563l-9-9c-.375-.375-.563-.844-.563-1.406V3.984c0-1.078.891-1.969 1.969-1.969h7.031c.563 0 1.031.188 1.406.563z"/></symbol><symbol id="magnifying-glass" viewBox="0 0 20 20"><path d="M17.545 15.467l-3.779-3.779a6.15 6.15 0 0 0 .898-3.21c0-3.417-2.961-6.377-6.378-6.377S2.1 4.87 2.1 8.287c0 3.416 2.961 6.377 6.377 6.377a6.15 6.15 0 0 0 3.115-.844l3.799 3.801a.953.953 0 0 0 1.346 0l.943-.943c.371-.371.236-.84-.135-1.211zM4.004 8.287c0-2.366 1.917-4.283 4.282-4.283s4.474 2.107 4.474 4.474c0 2.365-1.918 4.283-4.283 4.283s-4.473-2.109-4.473-4.474z"/></symbol><symbol id="man" viewBox="0 0 20 20"><path d="M10 4a2 2 0 1 0-.001-4.001A2 2 0 0 0 10 4zm5.978 7.583c-.385-1.775-1.058-4.688-2.042-5.894-.957-1.173-2.885-1.222-3.936-1.222-1.051 0-2.979.049-3.936 1.222-.984 1.206-1.657 4.119-2.042 5.894-.213.983 1.154 1.344 1.511.355.531-1.473.941-2.71 1.839-3.736C7.844 11.109 6.102 16.168 6 19a1 1 0 0 0 1.934.358C8.391 17.771 10 13.355 10 13.355s1.609 4.416 2.066 6.003A1 1 0 0 0 14 19c-.102-2.832-1.844-7.891-1.372-10.797.898 1.026 1.308 2.263 1.839 3.736.356.988 1.724.627 1.511-.356z"/></symbol><symbol id="question_answer" viewBox="0 0 24 24"><path d="M17.016 12c0 .563-.469.984-1.031.984H6.001l-3.984 4.031V2.999a.96.96 0 0 1 .984-.984h12.984c.563 0 1.031.422 1.031.984v9zM21 6a.96.96 0 0 1 .984.984v15L18 18H6.984A.96.96 0 0 1 6 17.016V15h12.984V6H21z"/></symbol><symbol id="twitter" viewBox="0 0 30 32"><path d="M28.929 7.286q-1.196 1.75-2.893 2.982.018.25.018.75 0 2.321-.679 4.634t-2.063 4.437-3.295 3.759-4.607 2.607-5.768.973q-4.839 0-8.857-2.589.625.071 1.393.071 4.018 0 7.161-2.464-1.875-.036-3.357-1.152t-2.036-2.848q.589.089 1.089.089.768 0 1.518-.196-2-.411-3.313-1.991t-1.313-3.67v-.071q1.214.679 2.607.732-1.179-.786-1.875-2.054t-.696-2.75q0-1.571.786-2.911Q4.91 8.285 8.008 9.883t6.634 1.777q-.143-.679-.143-1.321 0-2.393 1.688-4.08t4.08-1.688q2.5 0 4.214 1.821 1.946-.375 3.661-1.393-.661 2.054-2.536 3.179 1.661-.179 3.321-.893z"/></symbol><symbol id="vertical_align_bottom" viewBox="0 0 24 24"><path d="M3.984 18.984h16.031V21H3.984v-2.016zm12-6L12 17.015l-3.984-4.031h3V3h1.969v9.984h3z"/></symbol><symbol id="vertical_align_top" viewBox="0 0 24 24"><path d="M3.984 3h16.031v2.016H3.984V3zm4.032 8.016L12 6.985l3.984 4.031h-3V21h-1.969v-9.984h-3z"/></symbol><symbol id="weibo" viewBox="0 0 32 32"><path d="M12.054 22.929q.375-.607.196-1.232t-.804-.893q-.607-.25-1.304-.018t-1.071.821q-.393.607-.232 1.223t.768.902 1.33.045 1.116-.848zm1.678-2.161q.143-.232.063-.473t-.313-.33q-.25-.089-.509.009t-.384.33q-.304.554.232.804.25.089.518-.009t.393-.33zm3.107 1.911q-.804 1.821-2.821 2.679t-4 .214q-1.911-.607-2.634-2.259t.116-3.348q.839-1.661 2.705-2.482t3.759-.339q1.982.518 2.83 2.134t.045 3.402zm5.572-2.858q-.161-1.714-1.589-3.036t-3.723-1.946-4.902-.375q-3.982.411-6.598 2.527t-2.366 4.723q.161 1.714 1.589 3.036t3.723 1.946 4.902.375q3.982-.411 6.598-2.527t2.366-4.723zm5.5.072q0 1.214-.661 2.491t-1.946 2.446-3.009 2.098-4.036 1.482-4.83.554-4.911-.598-4.295-1.661-3.063-2.696-1.161-3.563q0-2.054 1.241-4.375t3.527-4.607q3.018-3.018 6.098-4.214t4.402.125q1.161 1.143.357 3.732-.071.25-.018.357t.179.125.259-.009.241-.063l.107-.036q2.482-1.054 4.393-1.054t2.732 1.089q.804 1.125 0 3.179-.036.232-.08.357t.08.223.214.134.304.107q1.018.321 1.839.839t1.429 1.455.607 2.08zM26.589 8.75q.75.839.973 1.938t-.116 2.098q-.143.411-.527.607t-.795.071q-.411-.143-.607-.527t-.071-.795q.357-1.125-.429-1.982t-1.911-.625q-.429.089-.804-.143t-.446-.661q-.089-.429.143-.795t.661-.455q1.071-.232 2.125.098t1.804 1.17zm3.232-2.911q1.554 1.714 2.009 3.973t-.241 4.313q-.161.482-.607.714t-.929.071-.714-.607-.089-.929q.5-1.464.179-3.071T28 7.482q-1.107-1.232-2.643-1.705t-3.089-.152q-.5.107-.929-.17t-.536-.777.17-.92.777-.527q2.196-.464 4.357.205t3.714 2.402z"/></symbol></svg>