<?xml version="1.0" encoding="UTF-8"?><!DOCTYPE svg PUBLIC "-//W3C//DTD SVG 1.1//EN" "http://www.w3.org/Graphics/SVG/1.1/DTD/svg11.dtd"><svg xmlns="http://www.w3.org/2000/svg"><symbol id="bubble_chart" viewBox="0 0 24 24"><path d="M10.406 8.813c0-2.672 2.109-4.828 4.781-4.828s4.828 2.156 4.828 4.828-2.156 4.781-4.828 4.781-4.781-2.109-4.781-4.781zM12.797 18c0-1.125.891-2.016 2.016-2.016s1.969.891 1.969 2.016-.844 2.016-1.969 2.016-2.016-.891-2.016-2.016zm-8.813-3.609c0-1.781 1.453-3.188 3.234-3.188s3.188 1.406 3.188 3.188S9 17.579 7.218 17.579s-3.234-1.406-3.234-3.188z"/></symbol><symbol id="chat" viewBox="0 0 24 24"><path d="M18 8.016V6H6v2.016h12zm-3.984 6V12H6v2.016h8.016zM6 9v2.016h12V9H6zm14.016-6.984c1.078 0 1.969.891 1.969 1.969v12c0 1.078-.891 2.016-1.969 2.016H6l-3.984 3.984v-18c0-1.078.891-1.969 1.969-1.969h16.031z"/></symbol><symbol id="closed_caption" viewBox="0 0 24 24"><path d="M18 11.016V9.985a.96.96 0 0 0-.984-.984h-3c-.563 0-1.031.422-1.031.984v4.031c0 .563.469.984 1.031.984h3a.96.96 0 0 0 .984-.984v-1.031h-1.5v.516h-2.016v-3H16.5v.516H18zm-6.984 0V9.985c0-.563-.469-.984-1.031-.984h-3a.96.96 0 0 0-.984.984v4.031a.96.96 0 0 0 .984.984h3c.563 0 1.031-.422 1.031-.984v-1.031h-1.5v.516H7.5v-3h2.016v.516h1.5zm7.968-7.032C20.062 3.984 21 4.922 21 6v12c0 1.078-.938 2.016-2.016 2.016H5.015c-1.125 0-2.016-.938-2.016-2.016V6c0-1.078.891-2.016 2.016-2.016h13.969z"/></symbol><symbol id="code" viewBox="0 0 20 20"><path d="M5.719 14.75a.997.997 0 0 1-.664-.252L-.005 10l5.341-4.748a1 1 0 0 1 1.328 1.495L3.005 10l3.378 3.002a1 1 0 0 1-.664 1.748zm8.945-.002L20.005 10l-5.06-4.498a.999.999 0 1 0-1.328 1.495L16.995 10l-3.659 3.252a1 1 0 0 0 1.328 1.496zm-4.678 1.417l2-12a1 1 0 1 0-1.972-.329l-2 12a1 1 0 1 0 1.972.329z"/></symbol><symbol id="colours" viewBox="0 0 20 20"><path d="M3.179 5.998a1.005 1.005 0 0 0-1.408.132L.494 7.669a1.004 1.004 0 0 0 .131 1.407l7.888 6.542-3.807-8.354-1.527-1.266zm3.834-3.315l-1.82.829a1.005 1.005 0 0 0-.495 1.324l4.25 9.325.213-9.179-.822-1.804c-.23-.5-.826-.723-1.326-.495zm7.198.204a1.003 1.003 0 0 0-.976-1.023l-2-.046a1.003 1.003 0 0 0-1.022.976l-.239 10.243 4.19-8.167.047-1.983zm4.98.95l-1.779-.913a1.005 1.005 0 0 0-1.347.434L9.674 15.814a1.004 1.004 0 0 0 .434 1.347l1.779.913a1.003 1.003 0 0 0 1.346-.433l6.391-12.456a1.005 1.005 0 0 0-.433-1.348zm-6.392 12.456a1 1 0 1 1-1.78-.911 1 1 0 0 1 1.78.911z"/></symbol><symbol id="dashboard" viewBox="0 0 24 24"><path d="M12.984 3H21v6h-8.016V3zm0 18v-9.984H21V21h-8.016zM3 21v-6h8.016v6H3zm0-8.016V3h8.016v9.984H3z"/></symbol><symbol id="dehaze" viewBox="0 0 24 24"><path d="M2.016 5.484h19.969V7.5H2.016V5.484zm0 5.016h19.969v2.016H2.016V10.5zm0 5.016h19.969v1.969H2.016v-1.969z"/></symbol><symbol id="facebook" viewBox="0 0 19 32"><path d="M17.125.214v4.714h-2.804q-1.536 0-2.071.643T11.714 7.5v3.375h5.232l-.696 5.286h-4.536v13.554H6.25V16.161H1.696v-5.286H6.25V6.982q0-3.321 1.857-5.152T13.053 0q2.625 0 4.071.214z"/></symbol><symbol id="flickr" viewBox="0 0 27 32"><path d="M22.286 2.286q2.125 0 3.634 1.509t1.509 3.634v17.143q0 2.125-1.509 3.634t-3.634 1.509H5.143q-2.125 0-3.634-1.509T0 24.572V7.429q0-2.125 1.509-3.634t3.634-1.509h17.143zM12.464 16q0-1.571-1.107-2.679t-2.679-1.107-2.679 1.107T4.892 16t1.107 2.679 2.679 1.107 2.679-1.107T12.464 16zm10.072 0q0-1.571-1.107-2.679t-2.679-1.107-2.679 1.107T14.964 16t1.107 2.679 2.679 1.107 2.679-1.107T22.536 16z"/></symbol><symbol id="folder_open" viewBox="0 0 24 24"><path d="M20.016 18V8.016H3.985V18h16.031zm0-12c1.078 0 1.969.938 1.969 2.016V18c0 1.078-.891 2.016-1.969 2.016H3.985c-1.078 0-1.969-.938-1.969-2.016V6c0-1.078.891-2.016 1.969-2.016h6L12.001 6h8.016z"/></symbol><symbol id="foursquare" viewBox="0 0 23 32"><path d="M17.857 7.75l.661-3.464q.089-.411-.161-.714t-.625-.304H5.018q-.411 0-.688.304t-.277.661v19.661q0 .125.107.018l5.196-6.286q.411-.464.679-.598t.857-.134h4.268q.393 0 .661-.259t.321-.527q.429-2.321.661-3.411.071-.375-.205-.714t-.652-.339h-5.25q-.518 0-.857-.339t-.339-.857v-.75q0-.518.339-.848t.857-.33h6.179q.321 0 .625-.241t.357-.527zm4.054-3.964q-.268 1.304-.955 4.759t-1.241 6.25-.625 3.098q-.107.393-.161.58t-.25.58-.438.589-.688.375-1.036.179h-4.839q-.232 0-.393.179-.143.161-7.607 8.821-.393.446-1.045.509t-.866-.098q-.982-.393-.982-1.75V2.678q0-.982.679-1.83T3.607 0h15.857q1.696 0 2.268.946t.179 2.839zm0 0L19.09 17.893q.071-.304.625-3.098t1.241-6.25.955-4.759z"/></symbol><symbol id="google-plus" viewBox="0 0 41 32"><path d="M25.661 16.304q0 3.714-1.554 6.616t-4.429 4.536-6.589 1.634q-2.661 0-5.089-1.036t-4.179-2.786-2.786-4.179T-.001 16t1.036-5.089 2.786-4.179T8 3.946t5.089-1.036q5.107 0 8.768 3.429L18.303 9.75q-2.089-2.018-5.214-2.018-2.196 0-4.063 1.107t-2.955 3.009T4.982 16t1.089 4.152 2.955 3.009 4.063 1.107q1.482 0 2.723-.411t2.045-1.027 1.402-1.402.875-1.482.384-1.321h-7.429v-4.5h12.357q.214 1.125.214 2.179zm15.482-2.179v3.75h-3.732v3.732h-3.75v-3.732h-3.732v-3.75h3.732v-3.732h3.75v3.732h3.732z"/></symbol><symbol id="heart" viewBox="0 0 32 32"><path d="M16 29.714q-.464 0-.786-.321L4.071 18.643q-.179-.143-.491-.464t-.991-1.17-1.214-1.741-.955-2.161T0 10.643Q0 6.714 2.268 4.5t6.268-2.214q1.107 0 2.259.384t2.143 1.036 1.705 1.223T16 6.143q.643-.643 1.357-1.214t1.705-1.223 2.143-1.036 2.259-.384q4 0 6.268 2.214T32 10.643q0 3.946-4.089 8.036L16.786 29.393q-.321.321-.786.321z"/></symbol><symbol id="home" viewBox="0 0 20 20"><path d="M18.672 11H17v6c0 .445-.194 1-1 1h-4v-6H8v6H4c-.806 0-1-.555-1-1v-6H1.328c-.598 0-.47-.324-.06-.748L9.292 2.22c.195-.202.451-.302.708-.312.257.01.513.109.708.312l8.023 8.031c.411.425.539.749-.059.749z"/></symbol><symbol id="inbox" viewBox="0 0 24 24"><path d="M18.984 15V5.016H4.968V15h4.031c0 1.641 1.359 3 3 3s3-1.359 3-3h3.984zm0-12C20.062 3 21 3.891 21 5.016v13.969c0 1.078-.938 2.016-2.016 2.016H4.968c-1.125 0-1.969-.938-1.969-2.016V5.016C2.999 3.891 3.843 3 4.968 3h14.016z"/></symbol><symbol id="infinity" viewBox="0 0 20 20"><path d="M15.902 5.6c-2.079 0-4.358 1.158-5.902 2.916C8.455 6.758 6.175 5.6 4.096 5.6 2.116 5.6 0 6.756 0 10s2.116 4.398 4.096 4.4c2.079 0 4.358-1.158 5.903-2.916 1.544 1.758 3.823 2.916 5.902 2.916C17.882 14.4 20 13.244 20 10s-2.118-4.4-4.098-4.4zM4.096 12.641C2.584 12.641 1.8 11.752 1.8 10s.784-2.641 2.296-2.641c1.673 0 3.614 1.086 4.807 2.641-1.193 1.555-3.134 2.641-4.807 2.641zm11.806 0c-1.673 0-3.614-1.086-4.807-2.641 1.192-1.555 3.135-2.641 4.807-2.641 1.512 0 2.298.889 2.298 2.641s-.786 2.641-2.298 2.641z"/></symbol><symbol id="instagram" viewBox="0 0 27 32"><path d="M18.286 16q0-1.893-1.339-3.232t-3.232-1.339-3.232 1.339T9.144 16t1.339 3.232 3.232 1.339 3.232-1.339T18.286 16zm2.464 0q0 2.929-2.054 4.982t-4.982 2.054-4.982-2.054T6.678 16t2.054-4.982 4.982-2.054 4.982 2.054T20.75 16zm1.929-7.321q0 .679-.482 1.161t-1.161.482-1.161-.482-.482-1.161.482-1.161 1.161-.482 1.161.482.482 1.161zM13.714 4.75l-1.366-.009q-1.241-.009-1.884 0t-1.723.054-1.839.179-1.277.33q-.893.357-1.571 1.036T3.018 7.911q-.196.518-.33 1.277t-.179 1.839-.054 1.723 0 1.884T2.464 16t-.009 1.366 0 1.884.054 1.723.179 1.839.33 1.277q.357.893 1.036 1.571t1.571 1.036q.518.196 1.277.33t1.839.179 1.723.054 1.884 0 1.366-.009 1.366.009 1.884 0 1.723-.054 1.839-.179 1.277-.33q.893-.357 1.571-1.036t1.036-1.571q.196-.518.33-1.277t.179-1.839.054-1.723 0-1.884T24.964 16t.009-1.366 0-1.884-.054-1.723-.179-1.839-.33-1.277q-.357-.893-1.036-1.571t-1.571-1.036q-.518-.196-1.277-.33t-1.839-.179-1.723-.054-1.884 0-1.366.009zM27.429 16q0 4.089-.089 5.661-.179 3.714-2.214 5.75t-5.75 2.214q-1.571.089-5.661.089t-5.661-.089q-3.714-.179-5.75-2.214T.09 21.661Q.001 20.09.001 16t.089-5.661q.179-3.714 2.214-5.75t5.75-2.214q1.571-.089 5.661-.089t5.661.089q3.714.179 5.75 2.214t2.214 5.75q.089 1.571.089 5.661z"/></symbol><symbol id="list" viewBox="0 0 24 24"><path d="M6.984 6.984H21V9H6.984V6.984zm0 10.032V15H21v2.016H6.984zm0-4.032v-1.969H21v1.969H6.984zM3 9V6.984h2.016V9H3zm0 8.016V15h2.016v2.016H3zm0-4.032v-1.969h2.016v1.969H3z"/></symbol><symbol id="local_offer" viewBox="0 0 24 24"><path d="M5.484 6.984c.844 0 1.5-.656 1.5-1.5s-.656-1.5-1.5-1.5-1.5.656-1.5 1.5.656 1.5 1.5 1.5zm15.938 4.594c.375.375.563.844.563 1.406s-.188 1.031-.563 1.406l-7.031 7.031c-.375.375-.844.563-1.406.563s-1.031-.188-1.406-.563l-9-9c-.375-.375-.563-.844-.563-1.406V3.984c0-1.078.891-1.969 1.969-1.969h7.031c.563 0 1.031.188 1.406.563z"/></symbol><symbol id="magnifying-glass" viewBox="0 0 20 20"><path d="M17.545 15.467l-3.779-3.779a6.15 6.15 0 0 0 .898-3.21c0-3.417-2.961-6.377-6.378-6.377S2.1 4.87 2.1 8.287c0 3.416 2.961 6.377 6.377 6.377a6.15 6.15 0 0 0 3.115-.844l3.799 3.801a.953.953 0 0 0 1.346 0l.943-.943c.371-.371.236-.84-.135-1.211zM4.004 8.287c0-2.366 1.917-4.283 4.282-4.283s4.474 2.107 4.474 4.474c0 2.365-1.918 4.283-4.283 4.283s-4.473-2.109-4.473-4.474z"/></symbol><symbol id="man" viewBox="0 0 20 20"><path d="M10 4a2 2 0 1 0-.001-4.001A2 2 0 0 0 10 4zm5.978 7.583c-.385-1.775-1.058-4.688-2.042-5.894-.957-1.173-2.885-1.222-3.936-1.222-1.051 0-2.979.049-3.936 1.222-.984 1.206-1.657 4.119-2.042 5.894-.213.983 1.154 1.344 1.511.355.531-1.473.941-2.71 1.839-3.736C7.844 11.109 6.102 16.168 6 19a1 1 0 0 0 1.934.358C8.391 17.771 10 13.355 10 13.355s1.609 4.416 2.066 6.003A1 1 0 0 0 14 19c-.102-2.832-1.844-7.891-1.372-10.797.898 1.026 1.308 2.263 1.839 3.736.356.988 1.724.627 1.511-.356z"/></symbol><symbol id="question_answer" viewBox="0 0 24 24"><path d="M17.016 12c0 .563-.469.984-1.031.984H6.001l-3.984 4.031V2.999a.96.96 0 0 1 .984-.984h12.984c.563 0 1.031.422 1.031.984v9zM21 6a.96.96 0 0 1 .984.984v15L18 18H6.984A.96.96 0 0 1 6 17.016V15h12.984V6H21z"/></symbol><symbol id="twitter" viewBox="0 0 30 32"><path d="M28.929 7.286q-1.196 1.75-2.893 2.982.018.25.018.75 0 2.321-.679 4.634t-2.063 4.437-3.295 3.759-4.607 2.607-5.768.973q-4.839 0-8.857-2.589.625.071 1.393.071 4.018 0 7.161-2.464-1.875-.036-3.357-1.152t-2.036-2.848q.589.089 1.089.089.768 0 1.518-.196-2-.411-3.313-1.991t-1.313-3.67v-.071q1.214.679 2.607.732-1.179-.786-1.875-2.054t-.696-2.75q0-1.571.786-2.911Q4.91 8.285 8.008 9.883t6.634 1.777q-.143-.679-.143-1.321 0-2.393 1.688-4.08t4.08-1.688q2.5 0 4.214 1.821 1.946-.375 3.661-1.393-.661 2.054-2.536 3.179 1.661-.179 3.321-.893z"/></symbol><symbol id="vertical_align_bottom" viewBox="0 0 24 24"><path d="M3.984 18.984h16.031V21H3.984v-2.016zm12-6L12 17.015l-3.984-4.031h3V3h1.969v9.984h3z"/></symbol><symbol id="vertical_align_top" viewBox="0 0 24 24"><path d="M3.984 3h16.031v2.016H3.984V3zm4.032 8.016L12 6.985l3.984 4.031h-3V21h-1.969v-9.984h-3z"/></symbol><symbol id="weibo" viewBox="0 0 32 32"><path d="M12.054 22.929q.375-.607.196-1.232t-.804-.893q-.607-.25-1.304-.018t-1.071.821q-.393.607-.232 1.223t.768.902 1.33.045 1.116-.848zm1.678-2.161q.143-.232.063-.473t-.313-.33q-.25-.089-.509.009t-.384.33q-.304.554.232.804.25.089.518-.009t.393-.33zm3.107 1.911q-.804 1.821-2.821 2.679t-4 .214q-1.911-.607-2.634-2.259t.116-3.348q.839-1.661 2.705-2.482t3.759-.339q1.982.518 2.83 2.134t.045 3.402zm5.572-2.858q-.161-1.714-1.589-3.036t-3.723-1.946-4.902-.375q-3.982.411-6.598 2.527t-2.366 4.723q.161 1.714 1.589 3.036t3.723 1.946 4.902.375q3.982-.411 6.598-2.527t2.366-4.723zm5.5.072q0 1.214-.661 2.491t-1.946 2.446-3.009 2.098-4.036 1.482-4.83.554-4.911-.598-4.295-1.661-3.063-2.696-1.161-3.563q0-2.054 1.241-4.375t3.527-4.607q3.018-3.018 6.098-4.214t4.402.125q1.161 1.143.357 3.732-.071.25-.018.357t.179.125.259-.009.241-.063l.107-.036q2.482-1.054 4.393-1.054t2.732 1.089q.804 1.125 0 3.179-.036.232-.08.357t.08.223.214.134.304.107q1.018.321 1.839.839t1.429 1.455.607 2.08zM26.589 8.75q.75.839.973 1.938t-.116 2.098q-.143.411-.527.607t-.795.071q-.411-.143-.607-.527t-.071-.795q.357-1.125-.429-1.982t-1.911-.625q-.429.089-.804-.143t-.446-.661q-.089-.429.143-.795t.661-.455q1.071-.232 2.125.098t1.804 1.17zm3.232-2.911q1.554 1.714 2.009 3.973t-.241 4.313q-.161.482-.607.714t-.929.071-.714-.607-.089-.929q.5-1.464.179-3.071T28 7.482q-1.107-1.232-2.643-1.705t-3.089-.152q-.5.107-.929-.17t-.536-.777.17-.92.777-.527q2.196-.464 4.357.205t3.714 2.402z"/></symbol></svg>