<svg id="Capa_1" enable-background="new 0 0 512 512" height="512" viewBox="0 0 512 512" width="512" xmlns="http://www.w3.org/2000/svg"><g><path d="m344.5 201h-11v110h11c30.376 0 55-24.624 55-55 0-30.376-24.624-55-55-55z" fill="#ffc682"/><path d="m399.5 256c0 30.38-24.62 55-55 55h-11v-23h11c26.44 0 48.51-18.64 53.79-43.5.79 3.71 1.21 7.56 1.21 11.5z" fill="#ffac5c"/><path d="m116.75 427.03c0 1.72-.3 3.4-.86 4.97-2.03 5.7-7.44 10-14.15 10h-39.24c-2.76 0-5-2.24-5-5v-129h45v30.54c0 28.46 4.55 56.73 13.48 83.75.35 1.07.58 2.15.68 3.21.03.17.04.33.05.5.03.35.04.69.04 1.03z" fill="#f5f5f5"/><path d="m116.75 427.03c0 1.72-.3 3.4-.86 4.97-2.03 5.7-7.44 10-14.15 10h-39.24c-2.76 0-5-2.24-5-5v-127l45 .49v18.01h-26.5c-1.1 0-2 .9-2 2v93c0 1.1.9 2 2 2h40.66c.03.17.04.33.05.5.03.35.04.69.04 1.03z" fill="#e6e6e6"/><g fill="#ffe7c9"><path d="m504.5 264.5h-70c-4.142 0-7.5-3.358-7.5-7.5s3.358-7.5 7.5-7.5h70c4.142 0 7.5 3.358 7.5 7.5s-3.358 7.5-7.5 7.5z"/><path d="m456.574 376.71c-1.562 0-3.136-.486-4.483-1.493l-44.995-33.623c-3.318-2.479-3.998-7.179-1.519-10.497s7.179-3.998 10.497-1.519l44.995 33.623c3.318 2.479 3.998 7.179 1.519 10.497-1.473 1.972-3.729 3.012-6.014 3.012z"/><path d="m413.123 185.199c-2.285 0-4.541-1.04-6.014-3.011-2.479-3.318-1.8-8.018 1.519-10.497l44.996-33.623c3.318-2.48 8.019-1.799 10.497 1.519 2.479 3.318 1.8 8.018-1.519 10.497l-44.996 33.623c-1.347 1.006-2.922 1.492-4.483 1.492z"/></g><path d="m125.06 201v110h-62.56c-15.19 0-28.94-6.16-38.89-16.11s-16.11-23.7-16.11-38.89c0-30.38 24.62-55 55-55z" fill="#fd646f"/><path d="m294 95.07v321.86l-54.91-33.92-28.93-17.87-35.16-21.72-15-9.26-37.5-23.16v-110l37.5-23.16 15-9.27z" fill="#f0ecec"/><path d="m175 168.57v174.85l-15-9.26v-156.32z" fill="#fd646f"/><path d="m294 95.07v321.86l-54.91-33.92-28.93-17.87-35.16-21.72-15-9.26-37.5-23.16v-110l27.5-16.98 10-6.18 15-9.27z" fill="#f5f5f5"/><path d="m175 168.57v153.69l-15-9.26v-135.16z" fill="#fd646f"/><path d="m318.5 70c14.359 0 26 11.641 26 26v320c0 14.359-11.641 26-26 26-14.359 0-26-11.641-26-26v-320c0-14.359 11.641-26 26-26z" fill="#fd646f"/><path d="m122.5 283.224s-21.947.067-27.45.095l-36.57.181c-16.15 0-30.77 3.84-41.35-6.11-3.22-3.02-6.06-6.39-8.45-10.05 2.22 10.64 7.53 20.15 14.93 27.55 9.95 9.95 23.7 16.11 38.89 16.11h62.56z" fill="#fc4755"/><path d="m175 312.26v31.16l-15-9.26v-31.16z" fill="#fc4755"/><path d="m292.5 384.84v31.16l-53.41-32.99-28.93-17.87-35.16-21.72v-31.16l9.46 5.84z" fill="#e6e6e6"/><path d="m344.5 385.97v30.03c0 14.36-11.64 26-26 26-7.18 0-13.68-2.91-18.38-7.62-4.71-4.7-7.62-11.2-7.62-18.38v-31.05c0 9.16 11.65 16.59 26.03 16.59 13.83 0 25.14-6.88 25.97-15.57z" fill="#fc4755"/><path d="m150 296.823-14.9-9.203c-3.1-1.91-6.5-3.26-10.04-3.98-.846-.173-1.7-.313-2.56-.416v27.776l37.5 23.16v-31.16z" fill="#e6e6e6"/></g><g><path d="m407 256c0-3.608-.311-7.227-.923-10.755-.708-4.081-4.591-6.813-8.672-6.107-4.081.708-6.815 4.591-6.107 8.672.466 2.684.702 5.439.702 8.19 0 23.639-17.36 43.295-40 46.902v-93.803c9.513 1.507 18.342 5.858 25.402 12.642 1.454 1.397 3.326 2.092 5.195 2.092 1.97 0 3.937-.771 5.409-2.304 2.87-2.987 2.774-7.735-.212-10.604-9.875-9.488-22.377-15.358-35.795-16.962v-97.963c0-18.472-15.028-33.5-33.5-33.5-16.992 0-31.06 12.72-33.206 29.136l-164.922 101.864h-57.871c-34.463 0-62.5 28.038-62.5 62.5 0 30.183 21.507 55.435 50 61.242v66.258c0 4.143 3.357 7.5 7.5 7.5s7.5-3.357 7.5-7.5v-65h30v20.037c0 29.31 4.665 58.28 13.864 86.108.765 2.313.385 4.772-1.043 6.748-1.427 1.974-3.642 3.106-6.078 3.106h-36.743v-17c0-4.143-3.357-7.5-7.5-7.5s-7.5 3.357-7.5 7.5v24.501c0 4.143 3.357 7.5 7.5 7.5h44.243c7.309 0 13.955-3.397 18.236-9.321 4.28-5.924 5.42-13.302 3.126-20.241-8.696-26.308-13.105-53.695-13.105-81.401v-20.037h10.371l85.848 53.023c3.469 2.158 8.132 1.115 10.322-2.439 2.177-3.524 1.084-8.146-2.439-10.322l-39.102-24.151v-157.222l110-67.941v293.105l-41.966-25.92c-3.525-2.178-8.146-1.085-10.322 2.439-2.177 3.524-1.084 8.146 2.439 10.322l50.142 30.97c2.147 16.416 16.215 29.136 33.207 29.136 18.472 0 33.5-15.028 33.5-33.5v-97.966c30.937-3.719 55-30.111 55-62.034zm-292 47.5h-52.5c-26.191 0-47.5-21.309-47.5-47.5s21.309-47.5 47.5-47.5h52.5zm45 21.846-30-18.529v-101.634l30-18.529zm177 90.654c0 10.201-8.299 18.5-18.5 18.5s-18.5-8.299-18.5-18.5v-320c0-10.201 8.299-18.5 18.5-18.5s18.5 8.299 18.5 18.5z"/><path d="m504.5 249.5h-70c-4.143 0-7.5 3.358-7.5 7.5 0 4.143 3.357 7.5 7.5 7.5h70c4.143 0 7.5-3.357 7.5-7.5 0-4.142-3.357-7.5-7.5-7.5z"/><path d="m461.069 363.202-44.995-33.623c-3.317-2.48-8.018-1.799-10.497 1.519s-1.8 8.018 1.519 10.497l44.995 33.623c1.347 1.007 2.922 1.492 4.483 1.492 2.285 0 4.541-1.04 6.014-3.011 2.479-3.318 1.8-8.017-1.519-10.497z"/><path d="m413.123 185.199c1.562 0 3.137-.486 4.483-1.493l44.995-33.623c3.318-2.479 3.998-7.179 1.519-10.497s-7.181-3.999-10.497-1.519l-44.995 33.623c-3.318 2.479-3.998 7.179-1.519 10.497 1.473 1.972 3.729 3.012 6.014 3.012z"/></g></svg>